<svg xmlns="http://www.w3.org/2000/svg" width="1200" height="675" viewBox="0 0 1200 675" role="img" aria-labelledby="title desc">
  <title id="title">Complete Metaphysics course</title><desc id="desc">A high-tech philosophical concept map in Tolbert Innovation Hub brand colours.</desc>
  <defs><linearGradient id="bg" x1="0" x2="1" y1="0" y2="1"><stop stop-color="#06163f"/><stop offset=".62" stop-color="#3e1879"/><stop offset="1" stop-color="#8b123f"/></linearGradient><radialGradient id="orb"><stop stop-color="#67d5ff" stop-opacity=".9"/><stop offset="1" stop-color="#236bd8" stop-opacity="0"/></radialGradient></defs>
  <rect width="1200" height="675" rx="36" fill="url(#bg)"/><circle cx="970" cy="160" r="250" fill="url(#orb)"/><g fill="none" stroke="#7fc8ff" stroke-opacity=".38" stroke-width="3"><circle cx="895" cy="300" r="155"/><circle cx="895" cy="300" r="90"/><path d="M740 300h310M895 145v310M785 190l220 220M1005 190L785 410"/></g><g fill="#fff"><circle cx="895" cy="145" r="10"/><circle cx="1050" cy="300" r="10"/><circle cx="895" cy="455" r="10"/><circle cx="740" cy="300" r="10"/></g>
  <rect x="70" y="62" width="305" height="52" rx="26" fill="#fff" fill-opacity=".13"/><text x="222" y="96" text-anchor="middle" fill="#fff" font-family="Arial,sans-serif" font-size="23" font-weight="700" letter-spacing="3">TIH LEARNING HUB</text>
  <text x="70" y="215" fill="#fff" font-family="Arial,sans-serif" font-size="76" font-weight="800">COMPLETE</text><text x="70" y="305" fill="#fff" font-family="Arial,sans-serif" font-size="82" font-weight="900">METAPHYSICS</text><rect x="70" y="337" width="510" height="8" rx="4" fill="#ed1c24"/>
  <text x="70" y="407" fill="#dbeafe" font-family="Arial,sans-serif" font-size="30">Reality • Existence • Mind • Freedom</text><text x="70" y="458" fill="#dbeafe" font-family="Arial,sans-serif" font-size="25">8 Modules · Full Notes · Videos · Projects · Certificate</text>
  <rect x="70" y="520" width="390" height="78" rx="20" fill="#ed1c24"/><text x="265" y="570" text-anchor="middle" fill="#fff" font-family="Arial,sans-serif" font-size="30" font-weight="800">BEGINNER → ADVANCED</text>
</svg>
