<svg xmlns="http://www.w3.org/2000/svg" width="1200" height="675" viewBox="0 0 1200 675" role="img" aria-labelledby="title desc">
  <title id="title">Complete Business Plan Development</title><desc id="desc">A high-tech TIH course cover showing a business plan, charts and a launch path.</desc>
  <defs><linearGradient id="bg" x1="0" x2="1" y1="0" y2="1"><stop stop-color="#00173f"/><stop offset=".58" stop-color="#064da9"/><stop offset="1" stop-color="#ed1c24"/></linearGradient><linearGradient id="glass" x1="0" x2="1"><stop stop-color="#fff" stop-opacity=".18"/><stop offset="1" stop-color="#fff" stop-opacity=".05"/></linearGradient><filter id="shadow"><feDropShadow dx="0" dy="14" stdDeviation="18" flood-color="#000" flood-opacity=".25"/></filter></defs>
  <rect width="1200" height="675" rx="36" fill="url(#bg)"/><g opacity=".16" fill="none" stroke="#8dc8ff" stroke-width="2"><path d="M0 110H1200M0 220H1200M0 330H1200M0 440H1200M0 550H1200"/><path d="M120 0V675M300 0V675M480 0V675M660 0V675M840 0V675M1020 0V675"/></g>
  <circle cx="1090" cy="80" r="210" fill="#ed1c24" opacity=".16"/><circle cx="1030" cy="590" r="260" fill="#1b8cff" opacity=".19"/>
  <g transform="translate(72 70)"><rect width="640" height="535" rx="32" fill="url(#glass)" stroke="#fff" stroke-opacity=".25"/><rect x="38" y="35" width="266" height="47" rx="23" fill="#ed1c24"/><text x="171" y="67" fill="#fff" font-family="Arial,sans-serif" font-size="23" font-weight="700" text-anchor="middle">TIH PROFESSIONAL COURSE</text><text x="38" y="155" fill="#9bd0ff" font-family="Arial,sans-serif" font-size="26" font-weight="700" letter-spacing="4">FROM IDEA TO FUNDING</text><text x="38" y="225" fill="#fff" font-family="Arial,sans-serif" font-size="61" font-weight="900">COMPLETE</text><text x="38" y="295" fill="#fff" font-family="Arial,sans-serif" font-size="61" font-weight="900">BUSINESS PLAN</text><text x="38" y="357" fill="#ffcf57" font-family="Arial,sans-serif" font-size="35" font-weight="800">DEVELOPMENT</text><text x="38" y="420" fill="#dbeeff" font-family="Arial,sans-serif" font-size="25">Research · Strategy · Finance · Pitch</text><rect x="38" y="458" width="520" height="2" fill="#8dc8ff" opacity=".6"/><text x="38" y="504" fill="#fff" font-family="Arial,sans-serif" font-size="22" font-weight="700">10 MODULES  ·  PROJECTS  ·  CERTIFICATE</text></g>
  <g transform="translate(778 125)" filter="url(#shadow)"><rect width="335" height="420" rx="26" fill="#fff"/><rect width="335" height="82" rx="26" fill="#eef5ff"/><rect y="56" width="335" height="26" fill="#eef5ff"/><circle cx="50" cy="41" r="19" fill="#ed1c24"/><text x="86" y="49" fill="#002868" font-family="Arial,sans-serif" font-size="26" font-weight="800">BUSINESS PLAN</text><g fill="#dbe8f8"><rect x="34" y="112" width="210" height="15" rx="7"/><rect x="34" y="143" width="265" height="11" rx="5"/><rect x="34" y="165" width="235" height="11" rx="5"/></g><g transform="translate(37 215)"><rect width="260" height="145" rx="16" fill="#eef5ff"/><path d="M20 115L72 82l47 12 48-61 68 32" fill="none" stroke="#1261c9" stroke-width="11" stroke-linecap="round" stroke-linejoin="round"/><circle cx="72" cy="82" r="8" fill="#ed1c24"/><circle cx="167" cy="33" r="8" fill="#ed1c24"/><path d="M226 49l17 16-20 9" fill="none" stroke="#1261c9" stroke-width="8"/></g><rect x="37" y="385" width="153" height="12" rx="6" fill="#ed1c24"/><rect x="205" y="385" width="92" height="12" rx="6" fill="#1261c9"/></g>
</svg>
